<svg xmlns="http://www.w3.org/2000/svg" xmlns:xlink="http://www.w3.org/1999/xlink" version="1.1" x="0px" y="0px" viewBox="0 0 464 580" style="enable-background:new 0 0 464 464;" xml:space="preserve"><g><path d="M88,320c0-8.837,7.163-16,16-16h-3.156c-13.509,0-26.166,5.894-34.827,16c8.661,10.106,21.318,16,34.827,16H104   C95.163,336,88,328.837,88,320z"/><path d="M355.578,397.267c0.843,1.687,2.538,2.733,4.422,2.733s3.579-1.047,4.422-2.733c7.886-15.771,13.354-32.587,16.253-49.981   L382.556,336h-45.112l1.881,11.285C342.224,364.68,347.692,381.495,355.578,397.267z"/><path d="M392,256c0,8.094-3.027,15.491-8,21.132V320h32v16h-17.223l-2.319,13.916c-3.162,18.969-9.125,37.307-17.725,54.507   C375.163,411.563,367.984,416,360,416s-15.163-4.437-18.733-11.577c-8.6-17.2-14.563-35.538-17.725-54.507L321.223,336H304v-16h32   v-17.376c-2.504,0.888-5.196,1.376-8,1.376h-40v128h144V208h-80v17.023c2.593-0.669,5.277-1.023,8-1.023   C377.645,224,392,238.355,392,256z"/><path d="M176,208H32v224h144V208z M158.656,324.438C147.15,341.696,127.898,352,107.156,352h-6.312   c-20.742,0-39.995-10.304-51.5-27.563L46.385,320l2.958-4.438C60.85,298.304,80.102,288,100.844,288h6.312   c20.742,0,39.995,10.304,51.5,27.563l2.958,4.438L158.656,324.438z"/><path d="M368,286.987c-2.558,0.661-5.239,1.013-8,1.013c-2.723,0-5.407-0.354-8-1.023V320h16V286.987z"/><path d="M376,256c0-8.822-7.178-16-16-16c-2.834,0-5.584,0.76-8,2.159v27.683c2.416,1.399,5.166,2.159,8,2.159   C368.822,272,376,264.822,376,256z"/><path d="M107.156,304H104c8.837,0,16,7.163,16,16s-7.163,16-16,16h3.156c13.509,0,26.166-5.894,34.827-16   C133.322,309.894,120.665,304,107.156,304z"/><path d="M224,256h80V32H160v128h39.729c-3.347-4.564-5.755-9.857-6.925-15.598H176v-16h16.805   c1.039-5.099,3.056-9.845,5.839-14.042l-11.899-11.899l11.313-11.314l11.9,11.9c4.197-2.783,8.943-4.8,14.042-5.839V80.402h16   v16.805c5.099,1.039,9.845,3.056,14.042,5.839l11.9-11.9l11.313,11.314l-11.899,11.899c2.783,4.197,4.8,8.943,5.839,14.042H288v16   h-16.805c-1.039,5.099-3.056,9.845-5.839,14.042l11.899,11.899l-11.313,11.314l-11.899-11.899   c-6.325,4.194-13.901,6.644-22.042,6.644c-3.335,0-6.574-0.417-9.673-1.189c1.076,2.723,1.673,5.686,1.673,8.787V256z"/><path d="M456,176H352v16h96v256H272V304h-16v152c0,4.411,3.589,8,8,8h192c4.411,0,8-3.589,8-8V184C464,179.589,460.411,176,456,176   z"/><path d="M336,280v-6.116V8c0-4.411-3.589-8-8-8H136c-4.411,0-8,3.589-8,8v152h16V16h176v256h-96v16h104   C332.411,288,336,284.411,336,280z"/><circle cx="232" cy="136.402" r="24"/><path d="M200,176H8c-4.411,0-8,3.589-8,8v272c0,4.411,3.589,8,8,8h192c4.411,0,8-3.589,8-8V184C208,179.589,204.411,176,200,176z    M192,448H16V192h176V448z"/></g><text x="0" y="479" fill="#000000" font-size="5px" font-weight="bold" font-family="'Helvetica Neue', Helvetica, Arial-Unicode, Arial, Sans-serif">Created by Eucalyp</text><text x="0" y="484" fill="#000000" font-size="5px" font-weight="bold" font-family="'Helvetica Neue', Helvetica, Arial-Unicode, Arial, Sans-serif">from the Noun Project</text></svg>